<?xml version="1.0" encoding="UTF-8" standalone="no"?><svg xmlns="http://www.w3.org/2000/svg" xmlns:xlink="http://www.w3.org/1999/xlink" clip-rule="evenodd" stroke-miterlimit="10" viewBox="0 0 1024 768"><desc>SVG generated by Keynote</desc><defs></defs><g transform="matrix(1.00, 0.00, -0.00, -1.00, 0.0, 768.0)"><path d="M 0.0 768.0 L 1024.0 768.0 L 1024.0 0.0 L 0.0 0.0 Z M 0.0 768.0 " fill="#000000"></path><image xlink:href="B56F4EC82FDE83FE3F8EA626F0B79C5E.png" width="360.00" height="100.00" transform="matrix(1.00, 0.00, -0.00, -1.00, 85.0, 720.0)"></image><image xlink:href="../../63FDE3F6-E1E4-4BEC-8BAE-FAEF5D63F8B5/assets/3FDB8CEA0233F56596EC7AEE00F0CD0E.png" width="1243.00" height="922.00" transform="matrix(1.00, 0.00, -0.00, -1.00, 268.0, 505.0)" opacity="0.39"></image><g><clipPath id="clip0x6000010b0320"><path d="M 273.0 502.0 L 1506.0 502.0 L 1506.0 -410.0 L 273.0 -410.0 Z M 273.0 502.0 "></path></clipPath><g clip-path="url(#clip0x6000010b0320)"><image xlink:href="../../63FDE3F6-E1E4-4BEC-8BAE-FAEF5D63F8B5/assets/A5BC9A1A5965E439FCCBFCA77FAF01EF.png" width="1000.00" height="740.00" transform="matrix(1.23, 0.00, -0.00, -1.23, 273.0, 502.0)"></image></g></g><image xlink:href="8B176B99A0F421C92A1ABC00B818A1A8.png" width="96.00" height="96.00" transform="matrix(1.60, 0.00, -0.00, -1.60, 76.0, 588.0)"></image><image xlink:href="E8811C7BDFA8B2B30022D667CAFF2FF8.png" width="96.00" height="96.00" transform="matrix(1.60, 0.00, -0.00, -1.60, 77.0, 433.0)"></image><image xlink:href="675821CF48E9016005F68D519A878BD9.png" width="96.00" height="96.00" transform="matrix(1.60, 0.00, -0.00, -1.60, 77.0, 278.0)"></image><image xlink:href="2B809FF5CD405A913F2F199C7DF47764.png" width="96.00" height="96.00" transform="matrix(1.60, 0.00, -0.00, -1.60, 231.0, 588.0)"></image><image xlink:href="3876780D7CB1811991D348E85952C3CB.png" width="96.00" height="96.00" transform="matrix(1.60, 0.00, -0.00, -1.60, 231.0, 278.0)"></image><image xlink:href="0F699DA8C5257D7E9C4D9531135EBD1A.png" width="96.00" height="96.00" transform="matrix(1.60, 0.00, -0.00, -1.60, 229.0, 433.0)"></image><image xlink:href="381E4DA3D495A3DFDF9E330E0A80BC4D.png" width="96.00" height="96.00" transform="matrix(1.60, 0.00, -0.00, -1.60, 386.0, 588.0)"></image><image xlink:href="A84143A0E2170FC5ECB40BF53FA7C145.png" width="96.00" height="96.00" transform="matrix(1.60, 0.00, -0.00, -1.60, 384.0, 433.0)"></image><image xlink:href="9D8CFB080ADA7C446ED8DE3AAEB9919D.png" width="96.00" height="96.00" transform="matrix(1.60, 0.00, -0.00, -1.60, 541.0, 588.0)"></image></g></svg>