<?xml version="1.0" encoding="UTF-8" standalone="no"?><svg xmlns="http://www.w3.org/2000/svg" xmlns:xlink="http://www.w3.org/1999/xlink" clip-rule="evenodd" stroke-miterlimit="10" viewBox="0 0 1024 768"><desc>SVG generated by Keynote</desc><defs></defs><g transform="matrix(1.00, 0.00, -0.00, -1.00, 0.0, 768.0)"><path d="M 0.0 768.0 L 1024.0 768.0 L 1024.0 0.0 L 0.0 0.0 Z M 0.0 768.0 " fill="#000000"></path><image xlink:href="3FDB8CEA0233F56596EC7AEE00F0CD0E.png" width="1243.00" height="922.00" transform="matrix(1.00, 0.00, -0.00, -1.00, 268.0, 505.0)" opacity="0.39"></image><g><clipPath id="clip0x608000ea3ae0"><path d="M 273.0 502.0 L 1506.0 502.0 L 1506.0 -410.0 L 273.0 -410.0 Z M 273.0 502.0 "></path></clipPath><g clip-path="url(#clip0x608000ea3ae0)"><image xlink:href="A5BC9A1A5965E439FCCBFCA77FAF01EF.png" width="1000.00" height="740.00" transform="matrix(1.23, 0.00, -0.00, -1.23, 273.0, 502.0)"></image></g></g><text xml:space="preserve" font-family="Helvetica-Light,Helvetica" font-size="53.0" fill="#FEFFFF" transform="matrix(1.00, 0.00, -0.00, -1.00, 110.0, 532.2)">F</text><text xml:space="preserve" font-family="Helvetica-Light,Helvetica" font-size="53.0" fill="#FEFFFF" transform="matrix(1.00, 0.00, -0.00, -1.00, 139.4, 532.2)">i</text><text xml:space="preserve" font-family="Helvetica-Light,Helvetica" font-size="53.0" fill="#FEFFFF" transform="matrix(1.00, 0.00, -0.00, -1.00, 151.2, 532.2)">g</text><text xml:space="preserve" font-family="Helvetica-Light,Helvetica" font-size="53.0" fill="#FEFFFF" transform="matrix(1.00, 0.00, -0.00, -1.00, 183.6, 532.2)">h</text><text xml:space="preserve" font-family="Helvetica-Light,Helvetica" font-size="53.0" fill="#FEFFFF" transform="matrix(1.00, 0.00, -0.00, -1.00, 213.1, 532.2)">t</text><text xml:space="preserve" font-family="Helvetica-Light,Helvetica" font-size="53.0" fill="#FEFFFF" transform="matrix(1.00, 0.00, -0.00, -1.00, 227.8, 532.2)">i</text><text xml:space="preserve" font-family="Helvetica-Light,Helvetica" font-size="53.0" fill="#FEFFFF" transform="matrix(1.00, 0.00, -0.00, -1.00, 239.6, 532.2)">n</text><text xml:space="preserve" font-family="Helvetica-Light,Helvetica" font-size="53.0" fill="#FEFFFF" transform="matrix(1.00, 0.00, -0.00, -1.00, 269.0, 532.2)">g</text><text xml:space="preserve" font-family="Helvetica-Light,Helvetica" font-size="53.0" fill="#FEFFFF" transform="matrix(1.00, 0.00, -0.00, -1.00, 301.4, 532.2)"> </text><text xml:space="preserve" font-family="Helvetica-Light,Helvetica" font-size="53.0" fill="#FEFFFF" transform="matrix(1.00, 0.00, -0.00, -1.00, 316.1, 532.2)">B</text><text xml:space="preserve" font-family="Helvetica-Light,Helvetica" font-size="53.0" fill="#FEFFFF" transform="matrix(1.00, 0.00, -0.00, -1.00, 351.5, 532.2)">i</text><text xml:space="preserve" font-family="Helvetica-Light,Helvetica" font-size="53.0" fill="#FEFFFF" transform="matrix(1.00, 0.00, -0.00, -1.00, 363.3, 532.2)">g</text><text xml:space="preserve" font-family="Helvetica-Light,Helvetica" font-size="53.0" fill="#FEFFFF" transform="matrix(1.00, 0.00, -0.00, -1.00, 395.6, 532.2)"> </text><text xml:space="preserve" font-family="Helvetica-Light,Helvetica" font-size="53.0" fill="#FEFFFF" transform="matrix(1.00, 0.00, -0.00, -1.00, 410.4, 532.2)">C</text><text xml:space="preserve" font-family="Helvetica-Light,Helvetica" font-size="53.0" fill="#FEFFFF" transform="matrix(1.00, 0.00, -0.00, -1.00, 448.6, 532.2)">o</text><text xml:space="preserve" font-family="Helvetica-Light,Helvetica" font-size="53.0" fill="#FEFFFF" transform="matrix(1.00, 0.00, -0.00, -1.00, 478.1, 532.2)">r</text><text xml:space="preserve" font-family="Helvetica-Light,Helvetica" font-size="53.0" fill="#FEFFFF" transform="matrix(1.00, 0.00, -0.00, -1.00, 495.8, 532.2)">p</text><text xml:space="preserve" font-family="Helvetica-Light,Helvetica" font-size="53.0" fill="#FEFFFF" transform="matrix(1.00, 0.00, -0.00, -1.00, 528.1, 532.2)">o</text><text xml:space="preserve" font-family="Helvetica-Light,Helvetica" font-size="53.0" fill="#FEFFFF" transform="matrix(1.00, 0.00, -0.00, -1.00, 557.6, 532.2)">r</text><text xml:space="preserve" font-family="Helvetica-Light,Helvetica" font-size="53.0" fill="#FEFFFF" transform="matrix(1.00, 0.00, -0.00, -1.00, 575.3, 532.2)">a</text><text xml:space="preserve" font-family="Helvetica-Light,Helvetica" font-size="53.0" fill="#FEFFFF" transform="matrix(1.00, 0.00, -0.00, -1.00, 604.7, 532.2)">t</text><text xml:space="preserve" font-family="Helvetica-Light,Helvetica" font-size="53.0" fill="#FEFFFF" transform="matrix(1.00, 0.00, -0.00, -1.00, 619.5, 532.2)">i</text><text xml:space="preserve" font-family="Helvetica-Light,Helvetica" font-size="53.0" fill="#FEFFFF" transform="matrix(1.00, 0.00, -0.00, -1.00, 631.2, 532.2)">o</text><text xml:space="preserve" font-family="Helvetica-Light,Helvetica" font-size="53.0" fill="#FEFFFF" transform="matrix(1.00, 0.00, -0.00, -1.00, 660.7, 532.2)">n</text><text xml:space="preserve" font-family="Helvetica-Light,Helvetica" font-size="53.0" fill="#FEFFFF" transform="matrix(1.00, 0.00, -0.00, -1.00, 690.2, 532.2)">s</text><text xml:space="preserve" font-family="Helvetica-Light,Helvetica" font-size="53.0" fill="#FEFFFF" transform="matrix(1.00, 0.00, -0.00, -1.00, 716.7, 532.2)"> </text><text xml:space="preserve" font-family="Helvetica-Light,Helvetica" font-size="53.0" fill="#FEFFFF" transform="matrix(1.00, 0.00, -0.00, -1.00, 731.4, 532.2)">w</text><text xml:space="preserve" font-family="Helvetica-Light,Helvetica" font-size="53.0" fill="#FEFFFF" transform="matrix(1.00, 0.00, -0.00, -1.00, 769.7, 532.2)">i</text><text xml:space="preserve" font-family="Helvetica-Light,Helvetica" font-size="53.0" fill="#FEFFFF" transform="matrix(1.00, 0.00, -0.00, -1.00, 781.4, 532.2)">t</text><text xml:space="preserve" font-family="Helvetica-Light,Helvetica" font-size="53.0" fill="#FEFFFF" transform="matrix(1.00, 0.00, -0.00, -1.00, 796.2, 532.2)">h</text><text xml:space="preserve" font-family="Helvetica-Light,Helvetica" font-size="53.0" fill="#FEFFFF" transform="matrix(1.00, 0.00, -0.00, -1.00, 825.6, 532.2)"> </text><text xml:space="preserve" font-family="Helvetica-Light,Helvetica" font-size="53.0" fill="#FEFFFF" transform="matrix(1.00, 0.00, -0.00, -1.00, 840.4, 532.2)">t</text><text xml:space="preserve" font-family="Helvetica-Light,Helvetica" font-size="53.0" fill="#FEFFFF" transform="matrix(1.00, 0.00, -0.00, -1.00, 855.1, 532.2)">h</text><text xml:space="preserve" font-family="Helvetica-Light,Helvetica" font-size="53.0" fill="#FEFFFF" transform="matrix(1.00, 0.00, -0.00, -1.00, 884.6, 532.2)">e</text><text xml:space="preserve" font-family="Helvetica-Light,Helvetica" font-size="53.0" fill="#FEFFFF" transform="matrix(1.00, 0.00, -0.00, -1.00, 914.0, 532.2)"> </text><text xml:space="preserve" font-family="Helvetica-Light,Helvetica" font-size="53.0" fill="#FEFFFF" transform="matrix(1.00, 0.00, -0.00, -1.00, 134.5, 468.2)">P</text><text xml:space="preserve" font-family="Helvetica-Light,Helvetica" font-size="53.0" fill="#FEFFFF" transform="matrix(1.00, 0.00, -0.00, -1.00, 166.8, 468.2)">o</text><text xml:space="preserve" font-family="Helvetica-Light,Helvetica" font-size="53.0" fill="#FEFFFF" transform="matrix(1.00, 0.00, -0.00, -1.00, 196.3, 468.2)">w</text><text xml:space="preserve" font-family="Helvetica-Light,Helvetica" font-size="53.0" fill="#FEFFFF" transform="matrix(1.00, 0.00, -0.00, -1.00, 234.6, 468.2)">e</text><text xml:space="preserve" font-family="Helvetica-Light,Helvetica" font-size="53.0" fill="#FEFFFF" transform="matrix(1.00, 0.00, -0.00, -1.00, 264.0, 468.2)">r</text><text xml:space="preserve" font-family="Helvetica-Light,Helvetica" font-size="53.0" fill="#FEFFFF" transform="matrix(1.00, 0.00, -0.00, -1.00, 281.7, 468.2)"> </text><text xml:space="preserve" font-family="Helvetica-Light,Helvetica" font-size="53.0" fill="#FEFFFF" transform="matrix(1.00, 0.00, -0.00, -1.00, 296.4, 468.2)">o</text><text xml:space="preserve" font-family="Helvetica-Light,Helvetica" font-size="53.0" fill="#FEFFFF" transform="matrix(1.00, 0.00, -0.00, -1.00, 325.9, 468.2)">f</text><text xml:space="preserve" font-family="Helvetica-Light,Helvetica" font-size="53.0" fill="#FEFFFF" transform="matrix(1.00, 0.00, -0.00, -1.00, 340.6, 468.2)"> </text><text xml:space="preserve" font-family="Helvetica-Light,Helvetica" font-size="53.0" fill="#FEFFFF" transform="matrix(1.00, 0.00, -0.00, -1.00, 355.4, 468.2)">O</text><text xml:space="preserve" font-family="Helvetica-Light,Helvetica" font-size="53.0" fill="#FEFFFF" transform="matrix(1.00, 0.00, -0.00, -1.00, 396.6, 468.2)">p</text><text xml:space="preserve" font-family="Helvetica-Light,Helvetica" font-size="53.0" fill="#FEFFFF" transform="matrix(1.00, 0.00, -0.00, -1.00, 429.0, 468.2)">e</text><text xml:space="preserve" font-family="Helvetica-Light,Helvetica" font-size="53.0" fill="#FEFFFF" transform="matrix(1.00, 0.00, -0.00, -1.00, 458.4, 468.2)">n</text><text xml:space="preserve" font-family="Helvetica-Light,Helvetica" font-size="53.0" fill="#FEFFFF" transform="matrix(1.00, 0.00, -0.00, -1.00, 487.9, 468.2)"> </text><text xml:space="preserve" font-family="Helvetica-Light,Helvetica" font-size="53.0" fill="#FEFFFF" transform="matrix(1.00, 0.00, -0.00, -1.00, 502.6, 468.2)">S</text><text xml:space="preserve" font-family="Helvetica-Light,Helvetica" font-size="53.0" fill="#FEFFFF" transform="matrix(1.00, 0.00, -0.00, -1.00, 535.0, 468.2)">o</text><text xml:space="preserve" font-family="Helvetica-Light,Helvetica" font-size="53.0" fill="#FEFFFF" transform="matrix(1.00, 0.00, -0.00, -1.00, 564.5, 468.2)">u</text><text xml:space="preserve" font-family="Helvetica-Light,Helvetica" font-size="53.0" fill="#FEFFFF" transform="matrix(1.00, 0.00, -0.00, -1.00, 594.0, 468.2)">r</text><text xml:space="preserve" font-family="Helvetica-Light,Helvetica" font-size="53.0" fill="#FEFFFF" transform="matrix(1.00, 0.00, -0.00, -1.00, 610.7, 468.2)">c</text><text xml:space="preserve" font-family="Helvetica-Light,Helvetica" font-size="53.0" fill="#FEFFFF" transform="matrix(1.00, 0.00, -0.00, -1.00, 640.1, 468.2)">e</text><text xml:space="preserve" font-family="Helvetica-Light,Helvetica" font-size="53.0" fill="#FEFFFF" transform="matrix(1.00, 0.00, -0.00, -1.00, 669.6, 468.2)"> </text><text xml:space="preserve" font-family="Helvetica-Light,Helvetica" font-size="53.0" fill="#FEFFFF" transform="matrix(1.00, 0.00, -0.00, -1.00, 684.3, 468.2)">S</text><text xml:space="preserve" font-family="Helvetica-Light,Helvetica" font-size="53.0" fill="#FEFFFF" transform="matrix(1.00, 0.00, -0.00, -1.00, 716.7, 468.2)">o</text><text xml:space="preserve" font-family="Helvetica-Light,Helvetica" font-size="53.0" fill="#FEFFFF" transform="matrix(1.00, 0.00, -0.00, -1.00, 746.2, 468.2)">f</text><text xml:space="preserve" font-family="Helvetica-Light,Helvetica" font-size="53.0" fill="#FEFFFF" transform="matrix(1.00, 0.00, -0.00, -1.00, 760.9, 468.2)">t</text><text xml:space="preserve" font-family="Helvetica-Light,Helvetica" font-size="53.0" fill="#FEFFFF" transform="matrix(1.00, 0.00, -0.00, -1.00, 775.6, 468.2)">w</text><text xml:space="preserve" font-family="Helvetica-Light,Helvetica" font-size="53.0" fill="#FEFFFF" transform="matrix(1.00, 0.00, -0.00, -1.00, 813.9, 468.2)">a</text><text xml:space="preserve" font-family="Helvetica-Light,Helvetica" font-size="53.0" fill="#FEFFFF" transform="matrix(1.00, 0.00, -0.00, -1.00, 843.4, 468.2)">r</text><text xml:space="preserve" font-family="Helvetica-Light,Helvetica" font-size="53.0" fill="#FEFFFF" transform="matrix(1.00, 0.00, -0.00, -1.00, 860.1, 468.2)">e</text><text xml:space="preserve" font-family="Helvetica-Light,Helvetica" font-size="32.0" fill="#FEFFFF" transform="matrix(1.00, 0.00, -0.00, -1.00, 388.4, 219.4)">B</text><text xml:space="preserve" font-family="Helvetica-Light,Helvetica" font-size="32.0" fill="#FEFFFF" transform="matrix(1.00, 0.00, -0.00, -1.00, 409.7, 219.4)">y</text><text xml:space="preserve" font-family="Helvetica-Light,Helvetica" font-size="32.0" fill="#FEFFFF" transform="matrix(1.00, 0.00, -0.00, -1.00, 425.7, 219.4)"> </text><text xml:space="preserve" font-family="Helvetica-Light,Helvetica" font-size="32.0" fill="#FEFFFF" transform="matrix(1.00, 0.00, -0.00, -1.00, 434.6, 219.4)">R</text><text xml:space="preserve" font-family="Helvetica-Light,Helvetica" font-size="32.0" fill="#FEFFFF" transform="matrix(1.00, 0.00, -0.00, -1.00, 456.0, 219.4)">o</text><text xml:space="preserve" font-family="Helvetica-Light,Helvetica" font-size="32.0" fill="#FEFFFF" transform="matrix(1.00, 0.00, -0.00, -1.00, 473.8, 219.4)">h</text><text xml:space="preserve" font-family="Helvetica-Light,Helvetica" font-size="32.0" fill="#FEFFFF" transform="matrix(1.00, 0.00, -0.00, -1.00, 491.6, 219.4)">a</text><text xml:space="preserve" font-family="Helvetica-Light,Helvetica" font-size="32.0" fill="#FEFFFF" transform="matrix(1.00, 0.00, -0.00, -1.00, 509.3, 219.4)">n</text><text xml:space="preserve" font-family="Helvetica-Light,Helvetica" font-size="32.0" fill="#FEFFFF" transform="matrix(1.00, 0.00, -0.00, -1.00, 527.1, 219.4)"> </text><text xml:space="preserve" font-family="Helvetica-Light,Helvetica" font-size="32.0" fill="#FEFFFF" transform="matrix(1.00, 0.00, -0.00, -1.00, 536.0, 219.4)">M</text><text xml:space="preserve" font-family="Helvetica-Light,Helvetica" font-size="32.0" fill="#FEFFFF" transform="matrix(1.00, 0.00, -0.00, -1.00, 562.7, 219.4)">a</text><text xml:space="preserve" font-family="Helvetica-Light,Helvetica" font-size="32.0" fill="#FEFFFF" transform="matrix(1.00, 0.00, -0.00, -1.00, 580.5, 219.4)">t</text><text xml:space="preserve" font-family="Helvetica-Light,Helvetica" font-size="32.0" fill="#FEFFFF" transform="matrix(1.00, 0.00, -0.00, -1.00, 589.4, 219.4)">h</text><text xml:space="preserve" font-family="Helvetica-Light,Helvetica" font-size="32.0" fill="#FEFFFF" transform="matrix(1.00, 0.00, -0.00, -1.00, 607.2, 219.4)">u</text><text xml:space="preserve" font-family="Helvetica-Light,Helvetica" font-size="32.0" fill="#FEFFFF" transform="matrix(1.00, 0.00, -0.00, -1.00, 625.0, 219.4)">r</text></g></svg>